<?xml version="1.0" standalone="no"?>
<!DOCTYPE svg PUBLIC "-//W3C//DTD SVG 20010904//EN"
 "http://www.w3.org/TR/2001/REC-SVG-20010904/DTD/svg10.dtd">
<svg version="1.0" xmlns="http://www.w3.org/2000/svg"
 width="519.000000pt" height="519.000000pt" viewBox="0 0 519.000000 519.000000"
 preserveAspectRatio="xMidYMid meet">
<metadata>
Created by potrace 1.14, written by Peter Selinger 2001-2017
</metadata>
<g transform="translate(0.000000,519.000000) scale(0.100000,-0.100000)"
fill="#000000" stroke="none">
<path d="M1570 4467 c-3 -3 -36 -7 -75 -11 -136 -13 -333 -81 -468 -162 -100
-60 -236 -169 -286 -228 -9 -10 -23 -26 -32 -35 -54 -56 -199 -274 -199 -299
0 -4 -6 -18 -13 -32 -32 -62 -78 -214 -98 -325 -16 -87 -16 -343 -1 -410 7
-27 14 -63 17 -80 8 -54 62 -209 99 -285 38 -80 48 -97 83 -147 13 -17 23 -37
23 -43 0 -6 7 -13 15 -16 8 -4 15 -11 15 -16 0 -14 82 -110 145 -171 93 -90
233 -189 335 -239 106 -51 250 -99 340 -113 25 -4 54 -10 65 -13 36 -9 301
-11 341 -2 21 4 57 11 79 14 53 7 157 34 200 52 51 21 57 18 95 -39 19 -28 57
-80 83 -115 27 -35 48 -71 48 -80 0 -9 -10 -60 -21 -112 -34 -154 -36 -182
-11 -204 46 -41 109 -15 126 53 4 14 13 41 21 60 l15 35 29 -44 c24 -36 27
-45 15 -54 -15 -11 -45 -87 -45 -113 0 -11 15 -14 68 -13 37 1 72 1 78 1 6 -1
29 -27 51 -58 22 -32 67 -96 100 -143 32 -47 75 -107 94 -135 19 -27 37 -51
42 -53 4 -2 7 -7 7 -12 0 -8 120 -180 125 -180 2 0 10 6 17 13 7 6 40 30 73
52 33 22 64 44 70 48 5 5 64 46 130 92 172 121 163 106 112 179 -24 34 -63 90
-88 126 -24 36 -48 70 -54 77 -5 7 -16 19 -22 27 -7 8 -13 20 -13 25 0 8 160
90 280 144 19 8 70 32 114 51 43 20 81 36 85 36 4 0 6 -34 6 -75 -1 -61 2 -75
14 -76 9 -1 38 -2 66 -3 43 -1 50 -4 50 -21 0 -20 7 -20 445 -20 l445 0 2 438
c0 240 -2 438 -5 438 -32 6 -882 3 -883 -3 -1 -4 -2 -14 -3 -20 -1 -9 -20 -13
-56 -14 -71 0 -80 -6 -76 -49 2 -19 0 -38 -5 -41 -22 -13 -143 -3 -244 20 -60
15 -130 31 -155 36 -25 5 -63 15 -85 21 -126 33 -215 43 -270 27 -16 -5 -43
-11 -59 -13 -33 -7 -99 -39 -141 -70 -16 -12 -35 -25 -42 -29 -7 -3 -31 23
-60 66 l-50 73 53 65 c29 36 69 92 89 125 20 33 40 67 45 75 49 79 106 255
131 402 20 118 23 300 6 378 -3 14 -8 45 -11 69 -7 51 -29 130 -63 221 -118
315 -387 610 -688 755 -71 34 -215 87 -215 79 0 -2 -12 1 -26 7 -15 5 -42 12
-62 15 -19 3 -44 8 -56 10 -28 7 -301 16 -306 11z m255 -271 c28 -3 61 -8 75
-11 14 -2 39 -7 55 -11 44 -8 141 -42 210 -72 156 -68 354 -235 446 -377 44
-67 100 -168 105 -190 1 -5 13 -37 25 -70 38 -102 58 -246 55 -385 -2 -69 -6
-136 -9 -150 -4 -14 -9 -38 -13 -55 -21 -104 -97 -276 -165 -375 -60 -89 -199
-226 -286 -283 -107 -70 -246 -134 -329 -152 -10 -2 -50 -10 -89 -19 -80 -17
-352 -16 -396 2 -14 6 -39 12 -55 15 -93 16 -347 134 -362 170 -2 4 -8 7 -13
7 -19 0 -175 150 -214 204 -11 16 -24 33 -30 40 -46 54 -109 174 -147 281 -78
217 -80 455 -6 685 82 258 284 497 529 627 65 34 214 90 262 98 17 3 55 10 82
15 81 16 155 18 270 6z"/>
<path d="M1516 3811 c-38 -8 -70 -52 -72 -99 -1 -20 -3 -40 -3 -44 -1 -4 -29
-7 -63 -6 -102 1 -138 -2 -137 -9 4 -25 -9 -28 -133 -26 -103 1 -136 -2 -155
-14 l-23 -15 2 -514 c1 -424 4 -516 15 -526 10 -8 210 -11 751 -10 405 0 744
1 753 1 9 1 20 9 24 19 4 9 9 240 11 513 4 479 4 497 -15 520 -18 23 -25 24
-151 26 -136 2 -166 6 -155 23 7 11 -5 12 -112 10 -54 -1 -73 2 -75 12 0 7 -2
18 -3 23 -2 6 -3 20 -4 32 0 13 -14 37 -30 55 l-29 33 -184 1 c-100 0 -196 -2
-212 -5z m377 -77 c6 -10 12 -38 12 -61 1 -40 -1 -43 -24 -44 -41 0 -291 -1
-338 0 l-41 1 0 44 c0 47 16 71 52 77 11 2 89 4 174 3 141 -1 155 -2 165 -20z"/>
</g>
</svg>
